#!OML:ASF C:\ViconDB\ViconDB\414\Spring2016\041811\Spring2016.ASF
:FULLY-SPECIFIED
:DEGREES
469
root 15.6437 18.7828 -15.4063 878.085 -77.84 208.097
lowerback 1.64859 -2.77373 -5.48186
upperback -0.0512922 -3.80777 0.0154054
thorax -0.618993 -1.88728 3.15138
lowerneck -13.3958 -6.37148 -18.9448
upperneck 18.1139 -11.0984 25.6001
head 10.6941 -4.57168 11.302
rclavicle 3.60794e-014 -3.97569e-014
rhumerus -46.3359 -20.4262 2.46719
rradius 30.0112
rwrist 42.8036
rhand -24.1806 -12.4642
rfingers 7.12502
rthumb 2.30297 -42.4315
lclavicle 3.60794e-014 -3.97569e-014
lhumerus -19.5469 -4.32309 8.61925
lradius 24.7496
lwrist -18.5291
lhand -26.1656 20.7271
lfingers 7.12502
lthumb 0.385774 50.7065
rfemur -19.8881 -211.409 5.28472
rtibia 29.2404
rfoot -13.8259 -49.8197
rtoes -27.5474
lfemur -15.7775 22.6118 -10.5851
ltibia 35.1529
lfoot -32.8484 38.774
ltoes -8.88824
470
root 15.6883 18.7854 -15.5168 881.544 -76.3207 204.68
lowerback 1.64875 -2.96809 -5.42491
upperback -0.0223421 -4.06467 0.0206308
thorax -0.568519 -2.01781 3.12587
lowerneck -13.1662 -6.18459 -19.2425
upperneck 18.1824 -10.7989 25.5605
head 10.5985 -4.47535 11.3999
rclavicle 6.26172e-015 2.8625e-014
rhumerus -47.3112 -19.5732 1.00733
rradius 30.8429
rwrist 42.353
rhand -24.5906 -12.6442
rfingers 7.12502
rthumb 1.90698 -42.6154
lclavicle 6.26172e-015 2.8625e-014
lhumerus -18.6084 -4.41924 9.24942
lradius 25.2161
lwrist -18.6635
lhand -26.5841 20.8867
lfingers 7.12502
lthumb -0.0183551 50.8665
rfemur -19.5801 -212.458 5.81565
rtibia 29.9218
rfoot -16.1829 -50.1067
rtoes -27.5945
lfemur -15.9053 23.7143 -10.0874
ltibia 35.9034
lfoot -32.206 38.9547
ltoes -9.50571
471
root 15.7354 18.7789 -15.6263 884.216 -74.781 202.043
lowerback 1.70102 -3.14068 -5.28152
upperback 0.00499724 -4.29476 -0.0148556
thorax -0.561269 -2.13401 3.01363
lowerneck -13.5945 -5.77582 -18.7395
upperneck 18.7833 -10.251 25.0822
head 10.6728 -4.18892 11.2206
rclavicle 4.6118e-014 1.74931e-014
rhumerus -48.567 -18.8938 -0.52173
rradius 31.8141
rwrist 41.5503
rhand -25.2441 -13.0833
rfingers 7.12502
rthumb 1.27577 -43.0592
lclavicle 4.6118e-014 1.74931e-014
lhumerus -17.6581 -4.82398 9.95134
lradius 25.8928
lwrist -18.4294
lhand -26.9713 21.091
lfingers 7.12502
lthumb -0.392404 51.0703
rfemur -19.4333 -214.559 6.2352
rtibia 30.6246
rfoot -19.9849 -50.7773
rtoes -26.7329
lfemur -16.1848 24.8346 -9.51226
ltibia 36.9543
lfoot -31.1271 39.112
ltoes -10.0956
472
root 15.7956 18.7743 -15.7345 886.49 -73.1936 199.604
lowerback 1.93243 -3.3432 -5.44081
upperback 0.22887 -4.57522 0.0309477
thorax -0.418566 -2.28237 3.15667
lowerneck -14.4664 -5.32886 -18.2814
upperneck 19.4724 -9.58683 24.646
head 10.8543 -3.82051 11.0997
rclavicle 7.93151e-014 -9.54166e-015
rhumerus -49.3965 -18.126 -2.55407
rradius 32.7333
rwrist 39.9578
rhand -26.2097 -13.358
rfingers 7.12502
rthumb 0.343192 -43.3375
lclavicle 7.93151e-014 -9.54166e-015
lhumerus -16.9057 -4.7465 10.7519
lradius 26.5899
lwrist -18.3253
lhand -27.6213 21.2065
lfingers 7.12502
lthumb -1.02019 51.1838
rfemur -19.4389 -215.839 6.52507
rtibia 31.3385
rfoot -23.0696 -51.468
rtoes -25.2979
lfemur -16.413 25.9951 -8.83186
ltibia 38.2965
lfoot -29.6195 39.1335
ltoes -10.9709
473
root 15.8525 18.7659 -15.8345 888.766 -71.6491 197.251
lowerback 2.07695 -3.47696 -5.62695
upperback 0.335588 -4.76431 0.0205694
thorax -0.357371 -2.38101 3.25547
lowerneck -15.0786 -4.85379 -17.7714
upperneck 20.1458 -8.92604 24.1545
head 10.9794 -3.47397 10.9417
rclavicle 3.40916e-014 1.43125e-014
rhumerus -50.5099 -17.1398 -4.46723
rradius 33.4894
rwrist 38.7059
rhand -27.7372 -13.3336
rfingers 7.12502
rthumb -1.13211 -43.3103
lclavicle 3.40916e-014 1.43125e-014
lhumerus -15.5764 -4.00647 11.713
lradius 26.7675
lwrist -18.6785
lhand -28.1494 20.9165
lfingers 7.12502
lthumb -1.53023 50.8907
rfemur -19.4239 -217.762 6.64739
rtibia 32.0868
rfoot -26.9962 -52.3677
rtoes -23.3806
lfemur -16.8785 27.0637 -8.31688
ltibia 39.902
lfoot -27.6427 39.0828
ltoes -12.0657
474
root 15.9079 18.75 -15.9325 890.849 -70.1502 194.846
lowerback 2.49942 -3.61426 -5.91493
upperback 0.418045 -4.98274 -0.0771514
thorax -0.471714 -2.48914 3.34271
lowerneck -15.2322 -4.47922 -17.9799
upperneck 20.4292 -8.47056 24.4963
head 11.0207 -3.25838 11.2366
rclavicle 6.11263e-014 -3.65764e-014
rhumerus -51.7401 -15.8658 -6.83276
rradius 34.4554
rwrist 37.2741
rhand -29.4574 -14.862
rfingers 7.12502
rthumb -2.7935 -44.8235
lclavicle 6.11263e-014 -3.65764e-014
lhumerus -14.4275 -4.03008 12.7728
lradius 27.2449
lwrist -18.7855
lhand -28.9361 21.448
lfingers 7.12502
lthumb -2.29004 51.4154
rfemur -19.7246 -219.351 6.41896
rtibia 32.7835
rfoot -30.1908 -53.4486
rtoes -20.5639
lfemur -17.1789 28.0528 -7.78251
ltibia 41.6466
lfoot -25.3389 38.9076
ltoes -11.9287
